<svg height="512pt" viewBox="0 -8 512 511" width="512pt" xmlns="http://www.w3.org/2000/svg"><path d="m330.859375 406.570312h-313.203125c-9.738281-.03125-17.6289062-7.917968-17.65625-17.65625v-370.757812c.0273438-9.738281 7.917969-17.628906 17.65625-17.65625h476.6875c9.738281.027344 17.628906 7.917969 17.65625 17.65625v370.757812c-.027344 9.738282-7.917969 17.625-17.65625 17.65625zm0 0" fill="#547580"/><path d="m52.964844 35.808594h194.207031c9.75 0 17.65625 7.90625 17.65625 17.65625v158.898437c0 9.75-7.90625 17.652344-17.65625 17.652344h-194.207031c-9.75 0-17.65625-7.902344-17.65625-17.652344v-158.898437c0-9.75 7.90625-17.65625 17.65625-17.65625zm0 0" fill="#84b5cb"/><path d="m79.449219 71.121094h141.242187c4.875 0 8.824219 3.953125 8.824219 8.828125v70.621093c0 4.875-3.949219 8.828126-8.824219 8.828126h-141.242187c-4.875 0-8.828125-3.953126-8.828125-8.828126v-70.621093c0-4.875 3.953125-8.828125 8.828125-8.828125zm0 0" fill="#7ed09e"/><path d="m88.277344 203.535156h-8.828125c-4.875 0-8.828125-3.953125-8.828125-8.828125s3.953125-8.828125 8.828125-8.828125h8.828125c4.875 0 8.824218 3.953125 8.824218 8.828125s-3.949218 8.828125-8.824218 8.828125zm0 0" fill="#547580"/><path d="m132.414062 203.535156h-8.828124c-4.875 0-8.828126-3.953125-8.828126-8.828125s3.953126-8.828125 8.828126-8.828125h8.828124c4.875 0 8.828126 3.953125 8.828126 8.828125s-3.953126 8.828125-8.828126 8.828125zm0 0" fill="#547580"/><path d="m176.550781 203.535156h-8.828125c-4.875 0-8.824218-3.953125-8.824218-8.828125s3.949218-8.828125 8.824218-8.828125h8.828125c4.875 0 8.828125 3.953125 8.828125 8.828125s-3.953125 8.828125-8.828125 8.828125zm0 0" fill="#547580"/><g fill="#2c3e50"><path d="m97.101562 274.15625h-35.308593c-4.875 0-8.828125-3.953125-8.828125-8.828125s3.953125-8.828125 8.828125-8.828125h35.308593c4.878907 0 8.828126 3.953125 8.828126 8.828125s-3.949219 8.828125-8.828126 8.828125zm0 0"/><path d="m167.722656 274.15625h-35.308594c-4.875 0-8.828124-3.953125-8.828124-8.828125s3.953124-8.828125 8.828124-8.828125h35.308594c4.875 0 8.828125 3.953125 8.828125 8.828125s-3.953125 8.828125-8.828125 8.828125zm0 0"/><path d="m238.34375 274.15625h-35.308594c-4.875 0-8.828125-3.953125-8.828125-8.828125s3.953125-8.828125 8.828125-8.828125h35.308594c4.875 0 8.828125 3.953125 8.828125 8.828125s-3.953125 8.828125-8.828125 8.828125zm0 0"/><path d="m97.101562 309.464844h-35.308593c-4.875 0-8.828125-3.953125-8.828125-8.828125s3.953125-8.828125 8.828125-8.828125h35.308593c4.878907 0 8.828126 3.953125 8.828126 8.828125s-3.949219 8.828125-8.828126 8.828125zm0 0"/><path d="m167.722656 309.464844h-35.308594c-4.875 0-8.828124-3.953125-8.828124-8.828125s3.953124-8.828125 8.828124-8.828125h35.308594c4.875 0 8.828125 3.953125 8.828125 8.828125s-3.953125 8.828125-8.828125 8.828125zm0 0"/><path d="m238.34375 309.464844h-35.308594c-4.875 0-8.828125-3.953125-8.828125-8.828125s3.953125-8.828125 8.828125-8.828125h35.308594c4.875 0 8.828125 3.953125 8.828125 8.828125s-3.953125 8.828125-8.828125 8.828125zm0 0"/><path d="m97.101562 344.777344h-35.308593c-4.875 0-8.828125-3.953125-8.828125-8.828125s3.953125-8.828125 8.828125-8.828125h35.308593c4.878907 0 8.828126 3.953125 8.828126 8.828125s-3.949219 8.828125-8.828126 8.828125zm0 0"/><path d="m167.722656 344.777344h-35.308594c-4.875 0-8.828124-3.953125-8.828124-8.828125s3.953124-8.828125 8.828124-8.828125h35.308594c4.875 0 8.828125 3.953125 8.828125 8.828125s-3.953125 8.828125-8.828125 8.828125zm0 0"/><path d="m238.34375 344.777344h-35.308594c-4.875 0-8.828125-3.953125-8.828125-8.828125s3.953125-8.828125 8.828125-8.828125h35.308594c4.875 0 8.828125 3.953125 8.828125 8.828125s-3.953125 8.828125-8.828125 8.828125zm0 0"/><path d="m97.101562 380.085938h-35.308593c-4.875 0-8.828125-3.953126-8.828125-8.828126s3.953125-8.828124 8.828125-8.828124h35.308593c4.878907 0 8.828126 3.953124 8.828126 8.828124s-3.949219 8.828126-8.828126 8.828126zm0 0"/><path d="m167.722656 380.085938h-35.308594c-4.875 0-8.828124-3.953126-8.828124-8.828126s3.953124-8.828124 8.828124-8.828124h35.308594c4.875 0 8.828125 3.953124 8.828125 8.828124s-3.953125 8.828126-8.828125 8.828126zm0 0"/><path d="m238.34375 380.085938h-35.308594c-4.875 0-8.828125-3.953126-8.828125-8.828126s3.953125-8.828124 8.828125-8.828124h35.308594c4.875 0 8.828125 3.953124 8.828125 8.828124s-3.953125 8.828126-8.828125 8.828126zm0 0"/></g><path d="m220.691406 203.535156h-8.828125c-4.875 0-8.828125-3.953125-8.828125-8.828125s3.953125-8.828125 8.828125-8.828125h8.828125c4.875 0 8.824219 3.953125 8.824219 8.828125s-3.949219 8.828125-8.824219 8.828125zm0 0" fill="#547580"/><path d="m332.710938 371.257812h-13.945313c-10.019531.261719-18.351563-7.636718-18.628906-17.65625v-300.136718c.277343-10.015625 8.609375-17.917969 18.628906-17.65625h139.296875c10.015625-.261719 18.351562 7.640625 18.628906 17.65625v300.136718c-.277344 10.019532-8.613281 17.917969-18.628906 17.65625zm0 0" fill="#2c3e50"/><path d="m441.378906 79.949219v105.929687c.011719 1.84375-.574218 3.640625-1.675781 5.121094l-23.835937-52.347656c-1.65625-3.519532-5.203126-5.757813-9.09375-5.738282h-36.722657c-3.886719-.019531-7.433593 2.21875-9.089843 5.738282l-23.835938 52.347656c-1.101562-1.480469-1.691406-3.277344-1.675781-5.121094v-105.929687c0-4.875 3.953125-8.828125 8.828125-8.828125h88.273437c4.875 0 8.828125 3.953125 8.828125 8.828125zm0 0" fill="#c03a2b"/><path d="m439.703125 191c-1.65625 2.304688-4.3125 3.683594-7.152344 3.707031h-88.273437c-2.839844-.023437-5.496094-1.402343-7.152344-3.707031l23.835938-52.347656c1.65625-3.519532 5.203124-5.757813 9.089843-5.738282h36.722657c3.890624-.019531 7.4375 2.21875 9.09375 5.738282zm0 0" fill="#802d40"/><path d="m414.898438 253.941406c3.554687 1.789063 6.875 4.015625 9.886718 6.621094 9.390625 7.679688 14.914063 19.117188 15.09375 31.246094l10.328125 194.207031c-.441406 5.277344-5.046875 9.214844-10.328125 8.828125h-102.929687c-5.28125.386719-9.886719-3.550781-10.328125-8.828125l10.328125-194.207031c.523437-16.320313 10.179687-30.964844 24.980469-37.867188" fill="#fdd7ad"/><path d="m397.242188 380.085938h-17.65625c-4.875 0-8.828126-3.953126-8.828126-8.828126s3.953126-8.828124 8.828126-8.828124h17.65625c4.875 0 8.828124 3.953124 8.828124 8.828124s-3.953124 8.828126-8.828124 8.828126zm0 0" fill="#f09372"/><path d="m397.242188 415.398438h-17.65625c-4.875 0-8.828126-3.953126-8.828126-8.828126s3.953126-8.828124 8.828126-8.828124h17.65625c4.875 0 8.828124 3.953124 8.828124 8.828124s-3.953124 8.828126-8.828124 8.828126zm0 0" fill="#f09372"/><path d="m150.070312 132.914062c-3.570312 0-6.789062-2.152343-8.15625-5.449218-1.363281-3.300782-.609374-7.09375 1.914063-9.621094l8.828125-8.828125c3.464844-3.34375 8.96875-3.296875 12.375.109375 3.402344 3.40625 3.453125 8.910156.105469 12.375l-8.828125 8.828125c-1.652344 1.65625-3.898438 2.585937-6.238282 2.585937zm0 0" fill="#bbd1b5"/><path d="m105.929688 132.914062c-3.570313 0-6.785157-2.152343-8.152344-5.449218-1.367188-3.300782-.609375-7.09375 1.914062-9.621094l26.480469-26.480469c3.464844-3.347656 8.96875-3.296875 12.375.105469 3.40625 3.40625 3.453125 8.910156.109375 12.375l-26.484375 26.484375c-1.65625 1.65625-3.898437 2.585937-6.242187 2.585937zm0 0" fill="#bbd1b5"/><path d="m370.757812 247.671875h35.3125c9.75 0 17.652344 7.90625 17.652344 17.65625v52.964844c0 14.625-11.855468 26.484375-26.480468 26.484375h-17.65625c-14.625 0-26.484376-11.859375-26.484376-26.484375v-52.964844c0-9.75 7.90625-17.65625 17.65625-17.65625zm0 0" fill="#f9eab0"/><path d="m420.722656 330.652344c-4.625 8.675781-13.648437 14.101562-23.480468 14.125h-17.65625c-9.832032-.023438-18.855469-5.449219-23.480469-14.125 5.59375-12.863282 18.28125-21.183594 32.308593-21.183594 14.027344 0 26.714844 8.320312 32.308594 21.183594zm0 0" fill="#f5efca"/></svg>